/* XPM */
static char * wall_xpm[] = {
"64 64 298 2",
"  	c #8898B3",
". 	c #8898B2",
"+ 	c #53617B",
"@ 	c #303F60",
"# 	c #303E62",
"$ 	c #313E60",
"% 	c #303F5F",
"& 	c #303F5D",
"* 	c #808FAA",
"= 	c #8898B1",
"- 	c #53607B",
"; 	c #313F60",
"> 	c #808EAC",
", 	c #7887A3",
"' 	c #687691",
") 	c #606E88",
"! 	c #5A6782",
"~ 	c #3A4668",
"{ 	c #455374",
"] 	c #71809F",
"^ 	c #7887A4",
"/ 	c #7988A4",
"( 	c #8999B3",
"_ 	c #7B8AA4",
": 	c #6F7D98",
"< 	c #6E7D97",
"[ 	c #7685A0",
"} 	c #7786A3",
"| 	c #5A698A",
"1 	c #5A698B",
"2 	c #5A6989",
"3 	c #7E8DA9",
"4 	c #7E8DA8",
"5 	c #455373",
"6 	c #5E6D8C",
"7 	c #66758D",
"8 	c #314061",
"9 	c #526181",
"0 	c #5B6A8B",
"a 	c #7F8EA9",
"b 	c #7D8CA8",
"c 	c #445373",
"d 	c #8998B4",
"e 	c #8897B3",
"f 	c #66748F",
"g 	c #526081",
"h 	c #596889",
"i 	c #7684A3",
"j 	c #7A89A4",
"k 	c #7A89A5",
"l 	c #6B7A98",
"m 	c #5C6B8B",
"n 	c #6E7D9B",
"o 	c #6E7C9B",
"p 	c #5F6E8C",
"q 	c #4D5C7C",
"r 	c #566586",
"s 	c #8393B0",
"t 	c #8999B2",
"u 	c #73829F",
"v 	c #7E8EA9",
"w 	c #808FAE",
"x 	c #8594B2",
"y 	c #72809E",
"z 	c #5A6987",
"A 	c #7C8BA8",
"B 	c #7B89A7",
"C 	c #5A6988",
"D 	c #546382",
"E 	c #5A688B",
"F 	c #546284",
"G 	c #677695",
"H 	c #6B7997",
"I 	c #667492",
"J 	c #505F7F",
"K 	c #515F80",
"L 	c #536283",
"M 	c #5A688A",
"N 	c #667596",
"O 	c #6B7999",
"P 	c #637190",
"Q 	c #637290",
"R 	c #6B7A95",
"S 	c #6B7A97",
"T 	c #576686",
"U 	c #516081",
"V 	c #7D8CAB",
"W 	c #8897B4",
"X 	c #7E8CA9",
"Y 	c #303E60",
"Z 	c #7E8DAA",
"` 	c #7E8DA7",
" .	c #7483A0",
"..	c #53607E",
"+.	c #394868",
"@.	c #7D8CAA",
"#.	c #7E8DAB",
"$.	c #7583A0",
"%.	c #515F7D",
"&.	c #3B4A6A",
"*.	c #667493",
"=.	c #697795",
"-.	c #647391",
";.	c #526080",
">.	c #526082",
",.	c #546384",
"'.	c #657394",
").	c #687796",
"!.	c #616F8E",
"~.	c #455273",
"{.	c #515F7C",
"].	c #515F7A",
"^.	c #546283",
"/.	c #5A6889",
"(.	c #8897B5",
"_.	c #525F7C",
":.	c #3B496A",
"<.	c #3F4D6D",
"[.	c #324162",
"}.	c #323F61",
"|.	c #566585",
"1.	c #586788",
"2.	c #4A5879",
"3.	c #5C6B88",
"4.	c #5C6B89",
"5.	c #5C6B8A",
"6.	c #5A6A8B",
"7.	c #3F4B6D",
"8.	c #556484",
"9.	c #5B698B",
"0.	c #596687",
"a.	c #495878",
"b.	c #5A6A8A",
"c.	c #59698A",
"d.	c #4C5A7B",
"e.	c #394667",
"f.	c #485777",
"g.	c #4B5879",
"h.	c #404E6F",
"i.	c #4C5B7B",
"j.	c #4C5A7A",
"k.	c #323E60",
"l.	c #323D60",
"m.	c #323E5F",
"n.	c #72809B",
"o.	c #485572",
"p.	c #6A7896",
"q.	c #72809D",
"r.	c #52607A",
"s.	c #303E5F",
"t.	c #8595B1",
"u.	c #8695B1",
"v.	c #8796B2",
"w.	c #8696B1",
"x.	c #56637F",
"y.	c #3C4968",
"z.	c #3A4767",
"A.	c #334061",
"B.	c #354264",
"C.	c #344262",
"D.	c #8595B0",
"E.	c #7382A1",
"F.	c #5B6A8A",
"G.	c #7E8EAA",
"H.	c #303F5E",
"I.	c #7482A1",
"J.	c #333D60",
"K.	c #5D6C8B",
"L.	c #7D8BA8",
"M.	c #6D7C9B",
"N.	c #5D6C8A",
"O.	c #6A7996",
"P.	c #647293",
"Q.	c #5B6A89",
"R.	c #657493",
"S.	c #7887A6",
"T.	c #7887A5",
"U.	c #5D6C8D",
"V.	c #697898",
"W.	c #697797",
"X.	c #627190",
"Y.	c #707F9A",
"Z.	c #4C5B7A",
"`.	c #4D5B7C",
" +	c #586787",
".+	c #6F7E9D",
"++	c #707F9D",
"@+	c #2F3E60",
"#+	c #556384",
"$+	c #7D8BAA",
"%+	c #5E6D8D",
"&+	c #8897B6",
"*+	c #7382A0",
"=+	c #7D8CA9",
"-+	c #303E61",
";+	c #6D7C99",
">+	c #687795",
",+	c #4E5D7D",
"'+	c #4D5C7D",
")+	c #4E5C7D",
"!+	c #435172",
"~+	c #435171",
"{+	c #576586",
"]+	c #5D6B88",
"^+	c #5D6A86",
"/+	c #566381",
"(+	c #394768",
"_+	c #5C6B8C",
":+	c #6E7D9C",
"<+	c #647393",
"[+	c #556485",
"}+	c #3E4C6C",
"|+	c #576687",
"1+	c #536282",
"2+	c #3D4B6C",
"3+	c #536182",
"4+	c #2F3E5F",
"5+	c #333D61",
"6+	c #323D61",
"7+	c #576480",
"8+	c #566480",
"9+	c #384665",
"0+	c #4F5C7A",
"a+	c #56647F",
"b+	c #57647E",
"c+	c #8898B4",
"d+	c #475470",
"e+	c #7A88A5",
"f+	c #8899B2",
"g+	c #475570",
"h+	c #313F5F",
"i+	c #303E5E",
"j+	c #8798B2",
"k+	c #697896",
"l+	c #7785A2",
"m+	c #7987A4",
"n+	c #7684A2",
"o+	c #435272",
"p+	c #62718F",
"q+	c #687696",
"r+	c #8190AC",
"s+	c #808EAB",
"t+	c #53607D",
"u+	c #5C6A88",
"v+	c #697796",
"w+	c #8392B0",
"x+	c #8493B0",
"y+	c #2F3E5E",
"z+	c #5B698C",
"A+	c #455375",
"B+	c #59688A",
"C+	c #8493AF",
"D+	c #2F3F5D",
"E+	c #455473",
"F+	c #596888",
"G+	c #8392AE",
"H+	c #2F3E5D",
"I+	c #4A5778",
"J+	c #596887",
"K+	c #8392AF",
"L+	c #8493B1",
"M+	c #657495",
"N+	c #707F9C",
"O+	c #606F8D",
"P+	c #7482A0",
"Q+	c #7786A4",
"R+	c #667595",
"S+	c #717F9D",
"T+	c #4C5A79",
"U+	c #4C5B79",
"V+	c #516080",
"W+	c #7583A2",
"X+	c #697895",
"Y+	c #7583A1",
"Z+	c #8897B2",
"`+	c #455474",
" @	c #7584A1",
".@	c #657491",
"+@	c #6E7D9A",
"@@	c #5F6E8D",
"#@	c #6D7C9C",
"$@	c #526182",
"%@	c #505D7F",
"&@	c #4F5C7D",
"*@	c #445071",
"=@	c #505E7F",
"-@	c #4F5E7F",
";@	c #505F80",
">@	c #3E4D6D",
",@	c #3A4969",
"'@	c #3A4768",
")@	c #384767",
"!@	c #344364",
"~@	c #344263",
"{@	c #3E4B6C",
"]@	c #334162",
"^@	c #3B4969",
"/@	c #334062",
"                                        . + @ # $ $ $ % & *                                     . . .                           ",
"= = = = = = = = = = = = = = = = = = = = . - % ; $ $ $ @ % >   = = = = = = = = = = = = = = = = . . . . = = = = = = = = = = = = = ",
", , , , , , , , , , , , , , , , , , , , , ' ) ! $ $ ~ { { ] ^ , , , , , , , , , , , , , , , , / . ( _ : < [ } , , , , , , , , , ",
"| | | | | | | | | | | | | 1 1 1 1 1 1 | 2 3 . 4 @ @ 5 | | | | | | | | | | | | | | | | | | | | 6 ( . 7 % 8 9 0 | | | | | | | | | ",
"| | | | | | | | | | | | | | | | | | | | | a = b @ @ c | | | | | | | | | | | | | | | | | | | | 6 d e f % @ g | | | | | | | | | | ",
"| | | | | | | | | | | | h i j j j k l | | a = b @ @ c | | | | | | | | | | | | | | | | | | | | m n o p q q r | | | | | | | | | | ",
"| | | | | | | | | | | | h s t t t = u | 2 v = b @ @ c | | | | | | | | | | | | | | | | | | | | | | | | 0 0 | | | | | | | | | | | ",
"| | | | | | | | | | | | 0 w x x x x y z z A x B @ @ c | | | | | | | | | | | | | | | | | | | | | | | | | | | | | | | | | | | | | ",
"| | | | | | | | | | | | | 2 C C C 2 2 2 2 2 2 D @ @ c | | | | | | | | | | | | | | | | | | | | | | | | | | | | | | | | | | | | | ",
"| | | | | | | | | | | | | | E E E E E E E E E F @ @ c | | | | | | | | | | | | | | | | | | | | | | | | | | | | | | | | | | | | | ",
"| | | | | G H I J K L | | | | | | | | | M N O P @ @ c | | | | | | | | | | | | | | | | | | | | | | 2 Q R S T J U | | | | | | | | ",
"| | | E | V W X % Y { | | | | | | | | | 2 Z   ` @ @ c | | | | | | | | | | | | | | | | | | | | | E C  .. W ..@ +.| | | | | | | | ",
"| | | E | @.W X % Y { | | | | | | | | | 2 #.  ` @ @ c | | | | | | | | | | | | | | | | | | | | | E 2 $.. W %.@ &.| | | | | | | | ",
"| | | | | *.=.-.;.>.,.| | | | | | | | | M '.).!.@ @ ~.| | | | | | | | | | | | | | | | | | | | | E 2 $.. W {.@ &.| | | | | | | | ",
"| | | | | | | | | | | | | | | | | | | | | | | ,.$ $ ~.| | | | | | | | | | | | | | | | | | | | | E 2 $.. e ].% &.| | | | | | | | ",
"| | | | | | | | | | | | | | | | | | | | | h h ^.$ $ ~./.h | | | h h | | | | | | | | | | | | | | E 2  .e (._.@ :.| | | | | | | | ",
"| | | | | | | | | | | | | | | | | | | | | <.[.[.$ $ }.[.[.|.| 1.[.[.2.| | | | | | | | | | | | | E 2 3.4.5.h | h | | | | | | | | ",
"6.6.6.6.6.6.6.6.6.6.6.6.6.6.6.6.6.6.6.6.| 7.$ $ $ $ $ @ @ 8.9.0.$ $ a.| 0 6.6.6.6.6.6.6.6.6.6.6.6.b.b.b.b.c.| 6.6.6.6.6.6.6.6.c.",
"d.d.d.d.d.d.d.d.d.d.d.d.d.d.d.d.d.d.d.d.d.e.$ $ $ $ $ @ @ f.d.g.$ $ h.i.d.d.d.d.d.d.d.d.d.d.d.d.d.d.d.d.d.d.d.d.d.d.d.d.d.d.d.j.",
"k.k.k.k.k.k.k.k.k.k.k.k.k.k.k.k.k.k.k.k.$ $ $ $ $ $ $ @ @ @ @ $ $ $ @ @ @ $ k.k.k.k.k.k.k.k.k.k.k.k.k.k.k.k.k.k.k.k.k.k.k.k.k.k.",
"k.k.k.k.k.k.k.k.k.k.k.k.k.k.k.k.k.k.k.k.; ; ; ; ; ; ; ; @ @ ; ; ; ; @ @ @ $ l.l.l.l.l.l.k.$ m.k.k.k.k.k.k.k.k.k.k.k.k.k.k.k.k.k.",
"n.n.n.n.n.n.n.n.n.n.n.n.n.n.n.n.n.n.n.n.n.n.n.n.n.n.n.n.n.n.n.n.n.n.n.n.n.o.$ $ $ $ $ $ Y p.q.n.n.n.n.n.n.n.n.n.n.n.n.n.n.n.n.n.",
"= = = = = = = = = = = = = = = = = = = = = = = = = = = = = = = = = = = = = r.$ $ $ $ $ $ s.> W . = = = = = = = = = = = = = = = = ",
"t.t.t.t.t.t.t.t.t.t.t.t.t.t.t.u.    v.t.t.t.t.t.t.t.t.t.t.t.t.t.t.t.t.t.w.x.y.z.$ $ A.B.C.X D.D.t.t.t.t.t.t.t.t.t.t.t.t.t.t.t.t.",
"| | | | | | | | | | | | | M M 6 W (.E.M M | | | | | | | | | | | | | | | F.G.. b H.l.{ | | | 2 2 | | | | | | M M M M | | | | | | ",
"| | | | | | | | | | | | | | | 6 (.W I.| | | | | | | | | | | | | | | | | 0 G.. b H.J.{ c.| | | | | | | | | | | 2 2 2 | | | | | | ",
"| | | | | | | | | | | | | | | K.A L.M.| | | | | | | | | | | | | | | | | 0 G.. b H.J.{ c.| | | | | | | | | | 2 N.O.H P.| | | | | ",
"| | | | | | | | | | | | | | | | 2 Q.2 | | | | | | | | | | | | | | | | | 0 G.. b H.J.{ c.| | | | | | | | | | /.R.W . S.2 2 | | | ",
"| | | | | | | | | | | | | | | | | | | | | | | | | | | | | | | | | | | | 0 G.. b H.J.{ c.| | | | | | | | | | M '.(.  T.C C 2 | | ",
"| | | | | | | | | | | | | | | | | | | | | | | | | | | | | | | | | | | | 0 G.. b H.J.{ c.| | | | | | | | | | | U.V.W.X.C C 2 | | ",
"| | | | | | | | | | | | | | | | | | | | | | | | | | | | | | | | | | | | 0 G.. b H.J.{ c.| | | | | | | | | | | | 1 1 2 C C 2 | | ",
"| | | | | | | | | | | | | | | | | | | | | | | | | | | | | | | | | | | | 0 G.. b H.J.{ c.| | | | | | | | | | | | | | | | | | | | ",
"| | | | | | | | | | | | | | | | | | | | | | | | | | | | | | | | | | | | 0 G.. b H.J.{ c.| | | | | | | | | | | | | | | | | | | | ",
"| | | | | | | | | | | | | | | | | | | | | | | | | | | | | | | | | | | | 0 G.. b H.l.{ c.| | | | | | | | | | | | | | | | | | | | ",
"| | | | 2 O.Y.p.Z.`.`.`.d. +| | | | | | | | | | | | | | | | | | | | | | 0 Z e @.@ @ { | | | | m .+++R.| | | | | | | | | | | | | ",
"| | | | 2 3   X % @+@+s.@ #+| | | | | | | | | | | | | | | | | | | | | | 0 Z e $+@ @ { | | | | %+&+&+*+| | | | | | | | | | | | | ",
"| | | | 2 3 . =+% -+@ @ @ 8.| | | | | | | | | | | | | | | | | | | | | | | Z d $+@ @ { | | | | %+&+&+*+| | | | | | | | | | | | | ",
"| | | | | p.;+>+,+'+'+)+)+1.| | | | | | | | | r !+!+!+!+~+{+| | | | | | | ]+^+/+; @ (+!+~+{+| _+M.:+<+| | | | | | | | | | | | | ",
"| | | | | | | | | | | | | | | | | | | | | | | ,.$ $ $ @ @ [+| | | | | | | }+$ $ $ $ $ $ @ [+| | | | | | | | | | | | | | | | | | ",
"|+|+|+|+|+|+|+|+|+|+|+|+|+|+|+|+|+|+|+|+|+|+|+g $ $ $ @ @ 1+|+|+|+|+|+|+ +2+$ $ $ $ $ $ Y 3+|+|+|+|+|+|+|+|+|+|+|+|+|+|+|+|+|+|+",
"@ @ @ @ @ @ @ @ @ @ @ @ @ @ @ @ @ @ @ @ @ @ @ @ $ $ $ @ @ Y @ @ @ @ @ @ 4+; $ $ $ $ $ $ Y @ @ @ @ @ @ @ @ @ @ @ @ @ @ @ @ @ @ @ ",
"5+6+6+5+6+6+6+6+6+6+@ @ @ @ $ $ $ $ $ $ Y @ H.H.5+5+5+5+6+5+6+6+5+6+6+6+6+5+5+5+5+5+5+5+5+6+5+6+6+5+6+6+5+6+6+5+6+6+5+6+6+5+6+6+",
"7+7+7+7+7+7+7+7+7+7+7+8+7+9+$ $ $ $ $ $ @ 0+a+b+7+7+7+7+7+7+7+7+7+7+7+7+7+7+7+7+7+7+7+7+7+7+7+7+7+7+7+7+7+7+7+7+7+7+7+7+7+7+7+7+",
". . . . . . . . . .   e c+d+$ $ $ $ $ $ % e+e . . . . . . . . . . . . . . . . . . . . . . . . . . . . . . . . . . . . . . . . . ",
"f+f+f+f+f+f+f+f+f+f+    d g+h+s.; s.@ @ i+, c+  f+f+f+f+f+f+f+f+f+f+f+f+f+= =   c+f+f+f+f+f+f+f+f+f+f+f+f+f+f+f+f+f+f+f+f+f+f+j+",
").).).).).).).).).).>+>+k+l+m+n+@ @ o+g ;.p+>+>+).).).).).).).).).).).).q+r+. s+t+_.u+).).).).).).).).).).).).).).).).).).).).v+",
"E E E E E E E E E E | | h w+  x+y+@ a.| | | | | E E E E E E E E E E E E z+G.. b H.-+A+E E E E E E E E E E E E E E E E E E E E E ",
"2 2 2 2 2 2 2 2 2 2 M M B+w+. C+D+@ a.| | E E E 2 2 2 2 2 2 2 2 2 2 2 2 | Z   =+H.@ E+2 2 2 2 2 2 2 2 2 | 2 2 2 2 2 2 2 2 2 2 2 ",
"| | | | E E | | | | C C F+G+. C+H+J.I+| | | | | | | | | | | | | | | | | | _+_+0 h h h | | | | | | | | E E E 2 C C C | | | | | | ",
"| | | 2 2 2 2 | | | C C J+K+c+L+y+J.I+| | | | | | | | | | | | | | | | | | | | | | | | | | | | | | | | 2 2 2 C C C C | | | | | | ",
"| | M+++N+O+C | | | C C Q.P+Q+E.@ J.I+| | | | | | | | | | | | | | | | | | | | | | | | | | | | | | | R+N+N+N+S+k+T+U+V+| | | | | ",
"E 2 W+. . X+F.| | | | | | | 2 |+@ J.I+| | | | | | | | | | | | | | | | | | | | | | | | | | | | | | 2 Y+  . . Z+` H.Y `+| | | | | ",
"E 2  @. . k+F.| | | | | | | |  +@ J.I+| | | | | | | | | | | | | | | | | | | | | | | | | | | | | E 2 $.W W W e 4 % -+`+| | | | | ",
"E F..@+@n @@C | | | | | | | |  +@ J.I+| | | | | | | | | | | | | | | | | | | | | | | | | | | | | E 2 .@:+:+:+#@V.,+,+$@0 | | | | ",
"1 | C 2 | 2 2 | | | | | | | |  +@ J.I+| | | | | | | | | | | | | | | | | | | | | | | | | | | | | | 2 z | | | | M 9.| | | | | | | ",
"| | | | | | | | | | | | | | |  +@ J.I+| | | | | | | | | | | | | | | | | | | | | | | | | | | | | | | | | | | | | | | | | | | | | ",
"| | | | | | | | | | | | | | |  +@ J.I+| | | | | | | | | | | | | | | | | | | | | | | | | | | | | | | | | | | | | | | | | | | | | ",
"| | | | | | | | | | | | | | |  +@ J.I+| | | | | | | | | | | | | | | | | | | | | | | | | | | | | | | | | | | | | | | | | | | | | ",
"| | | | | $@K 9 | | | | | K %@&@}.}.*@%@=@|+| | | | | | | | | | | | | | | | | | | | | | | V+-@;@| | | | | | | | | | | | | | | | ",
"| | | | | >@4+,@0 | | | | '@}.$ $ $ $ }.Y 9 | | | | | | | | | | | | | | | | | | | | | | | )@8 !@| | | | | | | | | | | | | | | | ",
"| | | | | >@4++.| | | 0 0 (+$ $ $ $ $ $ Y V+| | | | | | | | | | | | | | | | | | | | | | | )@@ ~@| | | | | | | | | | | | | | | | ",
"}+}+}+}+}+B.; ~@2+}+}+}+{@]@$ $ $ $ $ $ $ ^@}+}+}+}+}+}+}+}+}+}+}+}+}+}+}+}+}+}+}+}+}+}+}+]@$ /@}+}+}+}+}+}+}+}+}+}+}+}+}+}+}+{@",
"$ $ $ $ $ $ $ $ $ $ $ $ $ $ $ $ $ $ $ $ $ $ $ $ $ $ $ $ $ $ $ $ $ $ $ $ $ $ $ $ $ $ $ $ $ $ $ $ $ $ $ $ $ $ $ $ $ $ $ $ $ $ $ $ ",
"$ $ $ $ $ $ $ $ $ $ $ $ $ $ $ $ $ $ $ $ $ $ $ $ $ $ $ $ $ $ $ $ $ $ $ $ $ $ $ $ $ $ $ $ $ $ $ $ $ $ $ $ $ $ $ $ $ $ $ $ $ $ $ $ "};
